<svg version="1" xmlns="http://www.w3.org/2000/svg" width="682.667" height="682.667" viewBox="0 0 512.000000 512.000000"><path d="M158 77.6c-54.5 1.6-85.2 3.5-97 6-18.1 3.8-35 16.1-42.8 31.1-7.2 14-11.2 29-13.6 51.8-3.4 31.2-4.6 54.9-4.6 89s1.2 56.4 4.6 89.5c3.4 32.6 12.5 56.5 25.8 67.3 20.7 17 37.3 19.4 154.6 21.8 96.6 2 232.4-.7 261-5.2 8.8-1.4 18.4-4.6 25-8.3 7.3-4.1 18.3-14.6 22.4-21.5C507 376.2 512 338.3 512 256c0-83.3-5-121.1-19.1-144.6-7.6-12.7-24.6-24.3-40.4-27.8-8.1-1.8-24.7-3.1-56-4.7-20-1-213.5-2-238.5-1.3zm-32 137.6v17.3l8.7 8.7 8.8 8.8h41l8.2-8.2 8.3-8.3V198h29v40.5l-17.2 17.2-17.3 17.3h-64l-17.2-17.2L97 238.5V198h29v17.2zm278-5.7L392.5 221h-110l11.5-11.5 11.5-11.5h110L404 209.5zm-100 23.8c0 .2-7.4 7.7-16.5 16.7S271 266.9 271 267.5c0 .6 5.1 6.1 11.3 12.3l11.4 11.2h69.8l10.7 10.7c6 5.9 10.8 11.1 10.8 11.5 0 .5-23.1.8-51.2.8h-51.3l-23.2-23.2-23.3-23.3 17.2-17.2 17.3-17.3h16.7c9.3 0 16.8.1 16.8.3zm-126 63.2v17.6l-14.2-.3-14.3-.3-.3-17.3-.2-17.2h29v17.5z"/></svg>